<?xml version="1.0" encoding="UTF-8" standalone="no"?>
<!-- Created with Inkscape (http://www.inkscape.org/) -->

<svg
   width="536.13098"
   height="359.66016"
   viewBox="0 0 141.85132 95.160081"
   version="1.1"
   id="svg5"
   inkscape:version="1.2.2 (732a01da63, 2022-12-09, custom)"
   sodipodi:docname="website_design.svg"
   xml:space="preserve"
   xmlns:inkscape="http://www.inkscape.org/namespaces/inkscape"
   xmlns:sodipodi="http://sodipodi.sourceforge.net/DTD/sodipodi-0.dtd"
   xmlns="http://www.w3.org/2000/svg"
   xmlns:svg="http://www.w3.org/2000/svg"><sodipodi:namedview
     id="namedview7"
     pagecolor="#ffffff"
     bordercolor="#000000"
     borderopacity="0.25"
     inkscape:showpageshadow="2"
     inkscape:pageopacity="0.0"
     inkscape:pagecheckerboard="0"
     inkscape:deskcolor="#d1d1d1"
     inkscape:document-units="px"
     showgrid="false"
     inkscape:zoom="0.67780272"
     inkscape:cx="596.78132"
     inkscape:cy="236.79456"
     inkscape:window-width="1366"
     inkscape:window-height="704"
     inkscape:window-x="0"
     inkscape:window-y="27"
     inkscape:window-maximized="1"
     inkscape:current-layer="layer1"
     showguides="true" /><defs
     id="defs2"><inkscape:path-effect
       effect="bspline"
       id="path-effect6853"
       is_visible="true"
       lpeversion="1"
       weight="33.333333"
       steps="2"
       helper_size="0"
       apply_no_weight="true"
       apply_with_weight="true"
       only_selected="false" /></defs><g
     inkscape:label="Layer 1"
     inkscape:groupmode="layer"
     id="layer1"
     transform="translate(-180.18603,-44.448242)"><g
       id="g5835"><path
         style="fill:none;fill-opacity:1;stroke:#ffffff;stroke-width:1.32292;stroke-linejoin:round"
         d="m 190.24098,72.331258 c 4.58676,0.161501 8.9313,-1.999861 12.79022,-4.307795 2.15157,-1.286801 4.22135,-2.64237 5.31863,-4.981861 0.95845,-2.043472 0.73901,-2.170237 0.73901,-4.289933 0,-0.96647 0.0878,-1.936935 0,-2.899407 -0.10306,-1.129716 -1.08979,-5.487234 -1.27286,-6.390757 -0.0555,-0.27391 -0.26516,-2.690529 -0.82185,-2.698035 -1.06471,-0.01437 -3.23622,2.468951 -3.68292,3.121183 -1.60533,2.344076 -2.41419,5.082323 -3.09438,7.801462 -0.49347,1.972752 -1.46098,5.766303 -1.66066,7.998987 -0.0862,0.964162 0,1.936027 0,2.90404 0,3.073241 0,6.146482 0,9.219723 0,2.139823 0,4.279653 0,6.419473 0,0.9933 -0.17835,2.00275 0,2.97991 0.43334,2.374276 0.40976,0.44596 0.40976,1.23105 0,0.0245 0,-0.65286 0,-0.67734 0,-1.60404 -0.0714,-3.20968 0,-4.81213 0.14859,-3.33449 0.33452,-6.518164 1.89794,-9.517218 0.31676,-0.607627 1.24989,-2.234931 2.26399,-2.148428 0.69715,0.05947 1.40213,0.172747 2.05647,0.420534 0.46604,0.176491 0.86228,0.50885 1.24394,0.829302 2.84287,2.386979 3.44138,6.172428 3.44138,9.68817 0,1.4492 -0.5025,4.05024 0.60039,5.15313 0.0639,0.0639 0.10308,0.20954 0.19159,0.19157 0.9389,-0.1906 2.59146,-2.15806 3.15671,-2.77357 0.88281,-0.96129 1.59848,-2.03693 2.52138,-2.95982"
         id="path5482" /><path
         style="fill:none;fill-opacity:1;stroke:#ffffff;stroke-width:1.32292;stroke-linejoin:round"
         d="m 220.74085,73.130746 c 2.19663,1.015945 4.36227,3.359261 6.86084,1.583809 1.13768,-0.808418 2.97357,-2.735143 3.478,-4.080287 0.14972,-0.399243 0.0759,-1.983351 -0.39037,-2.146948 -0.83955,-0.294595 -3.46792,0.08895 -4.06381,0.58553 -0.67231,0.560258 -1.50882,1.408401 -1.95178,2.146951 -0.85524,1.425964 -0.38402,6.420988 0.0852,7.85509 0.14692,0.448997 0.45349,0.830577 0.63891,1.265087 0.72702,1.70354 1.66436,4.54152 3.49652,5.45759 1.16502,0.58251 2.4357,-0.0312 3.52325,-0.39433 0.39698,-0.13254 0.74025,-0.1093 1.13413,-0.37191 0.49173,-0.32782 1.12755,-1.34779 1.72347,-1.34779"
         id="path5488" /><path
         style="fill:none;fill-opacity:1;stroke:#ffffff;stroke-width:1.32292;stroke-linejoin:round"
         d="m 241.09454,74.89012 c 6.89724,-1.458003 -0.90381,0.362145 2.81081,-0.84396 3.8672,-1.255649 -2.04994,1.124365 2.83305,-0.782117 8.34371,-3.257647 -1.40923,0.452308 7.03318,-3.225336 1.01237,-0.441013 2.1341,-0.620898 3.11441,-1.129239 3.86191,-2.002603 2.40556,-5.484252 1.11752,-8.562221 -1.17425,-2.806049 -2.13188,-5.618295 -4.0382,-8.046601 -0.18802,-0.239519 -2.30005,-2.731519 -3.03388,-2.433659 -2.00099,0.812231 -2.72441,3.12918 -3.41645,4.966878 -1.89746,5.038571 -1.69082,10.362665 -1.69082,15.667029 0,3.766431 0,7.532859 0,11.299294 0,1.17727 -0.19119,4.39001 1.19279,5.09876 0.21685,0.11105 3.95102,0.0405 4.27543,0 0.4083,-0.051 0.77197,-0.29022 1.17107,-0.39036 0.71334,-0.17899 1.28278,-0.19518 2.10042,-0.19518"
         id="path5490" /><path
         style="fill:none;fill-opacity:1;stroke:#ffffff;stroke-width:1.32292;stroke-linejoin:round"
         d="m 263.66863,75.390053 c 4.80224,-1.691114 8.29853,-5.409301 10.73788,-9.793632 0.72543,-1.303843 1.23129,-2.71853 1.8769,-4.06369 1.55813,-3.246464 2.64311,-4.532596 2.64311,-8.093901 0,-0.415811 0.1007,-0.843997 0,-1.247428 -0.74867,-2.999653 -4.68366,-1.994292 -6.05438,-0.152609 -1.24651,1.674783 -2.0814,3.876985 -2.55604,5.877975 -0.46035,1.940804 -0.8722,3.902869 -1.06791,5.8879 -0.23995,2.434003 0,5.05297 0,7.500255 0,2.071333 -0.13404,4.184338 0.23717,6.236147 0.57029,3.152158 0.25856,0.642721 0.87125,3.075528 0.29573,1.17424 0.11742,1.36457 0.40682,2.60515 0.098,0.42003 0.32306,0.80489 0.40918,1.22752 0.0519,0.25499 -0.0565,0.52668 0,0.78071 0.43535,1.95635 1.44704,1.26475 2.91174,0.45385 0.36928,-0.20444 0.70673,-0.46496 1.08302,-0.65619 0.31274,-0.15893 0.6917,-0.18687 0.97713,-0.39077 0.45093,-0.32212 1.11416,-1.64277 1.36666,-2.14778"
         id="path5496" /><path
         style="fill:none;fill-opacity:1;stroke:#ffffff;stroke-width:1.32292;stroke-linejoin:round"
         d="m 291.36742,68.420465 c -1.68926,0.578307 -4.18513,0.958172 -4.8854,2.935504 -0.53449,1.509276 -0.36082,2.07549 -0.65122,3.582675 -0.57589,2.988887 -2.41766,8.770794 1.45169,10.317324 0.1778,0.0711 1.83922,0.65741 2.1649,0.59125 2.12444,-0.4316 4.41351,-1.66533 5.70478,-3.47855 1.09369,-1.53581 1.98036,-3.966736 2.39565,-5.827704 0.22354,-1.001716 0.0463,-2.766582 -0.22302,-3.706927 -0.13166,-0.459589 -0.43632,-0.851236 -0.6328,-1.287073 -0.36878,-0.818118 -0.72232,-1.884963 -1.57084,-2.369841 -0.90257,-0.515758 -1.40115,-0.504905 -2.34214,-0.585534 -0.47225,-0.04046 -1.07712,-0.506939 -1.4116,-0.171124 -0.52118,0.523232 -0.35179,1.43488 -0.55454,2.145019 -0.46464,1.627336 -1.45847,4.793583 0.19489,6.173089 0.14988,0.125039 0.39298,0.03185 0.58555,0 0.89154,-0.147479 1.80377,-0.239818 2.65734,-0.536435 0.18963,-0.06589 10.02242,-4.138147 10.71803,-4.489286 0.88083,-0.444629 1.62473,-1.121764 2.46639,-1.63667 0.96221,-0.588637 1.96136,-1.114973 2.93021,-1.692582 0.47427,-0.282731 0.78592,-0.2794 0.58555,-0.390353 -0.15973,-0.08843 -0.36512,0 -0.54769,0"
         id="path5502" /><rect
         style="fill:none;fill-opacity:1;stroke:#ffffff;stroke-width:0.264583;stroke-linejoin:round;stroke-dasharray:1.05833, 1.05833;stroke-dashoffset:0"
         id="rect5556"
         width="28.526423"
         height="46.793655"
         x="189.33847"
         y="44.580536"
         ry="0" /><rect
         style="fill:none;fill-opacity:1;stroke:#ffffff;stroke-width:0.264583;stroke-linejoin:round;stroke-dasharray:1.05833, 1.05833;stroke-dashoffset:0"
         id="rect5558"
         width="16.711967"
         height="20.750538"
         x="219.66867"
         y="66.716377"
         ry="0" /><rect
         style="fill:none;fill-opacity:1;stroke:#ffffff;stroke-width:0.264583;stroke-linejoin:round;stroke-dasharray:1.05833, 1.05833;stroke-dashoffset:0"
         id="rect5560"
         width="21.404423"
         height="40.248775"
         x="239.5968"
         y="48.22205"
         ry="0" /><rect
         style="fill:none;fill-opacity:1;stroke:#ffffff;stroke-width:0.264583;stroke-linejoin:round;stroke-dasharray:1.05833, 1.05833;stroke-dashoffset:0"
         id="rect5562"
         width="18.680809"
         height="40.248775"
         x="262.68515"
         y="48.22205"
         ry="0" /><rect
         style="fill:none;fill-opacity:1;stroke:#ffffff;stroke-width:0.264583;stroke-linejoin:round;stroke-dasharray:1.05833, 1.05833;stroke-dashoffset:0"
         id="rect5604"
         width="30.202515"
         height="40.248775"
         x="282.78003"
         y="48.22205"
         ry="0" /></g><text
       xml:space="preserve"
       style="font-style:normal;font-variant:normal;font-weight:300;font-stretch:normal;font-size:25.4px;font-family:'Roboto Condensed';-inkscape-font-specification:'Roboto Condensed,  Light';text-align:start;letter-spacing:13.2292px;text-anchor:start;fill:#ffffff;fill-opacity:1;stroke:none;stroke-width:0.264583;stroke-linejoin:round;stroke-dasharray:none;stroke-dashoffset:0"
       x="198.8933"
       y="139.36028"
       id="text5660"><tspan
         sodipodi:role="line"
         id="tspan5658"
         style="font-style:normal;font-variant:normal;font-weight:300;font-stretch:normal;font-size:25.4px;font-family:'Roboto Condensed';-inkscape-font-specification:'Roboto Condensed,  Light';fill:#ffffff;stroke:none;stroke-width:0.264583;stroke-dasharray:none"
         x="198.8933"
         y="139.36028">hello</tspan></text><path
       style="fill:none;fill-opacity:1;stroke:#0078f4;stroke-width:1.32292;stroke-linejoin:round;stroke-dasharray:none;stroke-dashoffset:0;stroke-opacity:1"
       d="m 180.18605,105.90838 c 47.28404,0 94.56781,0 141.85131,0"
       id="path6851"
       inkscape:path-effect="#path-effect6853"
       inkscape:original-d="m 180.18605,105.90838 c 47.28404,2.6e-4 94.56781,2.6e-4 141.85131,0" /></g></svg>
