<?xml version="1.0" encoding="UTF-8" standalone="no"?>
<!-- Created with Inkscape (http://www.inkscape.org/) -->

<svg
   width="728.13092"
   height="164.79193"
   viewBox="0 0 192.6513 43.601198"
   version="1.1"
   id="svg5"
   inkscape:version="1.2.2 (732a01da63, 2022-12-09, custom)"
   sodipodi:docname="website_design.svg"
   xml:space="preserve"
   xmlns:inkscape="http://www.inkscape.org/namespaces/inkscape"
   xmlns:sodipodi="http://sodipodi.sourceforge.net/DTD/sodipodi-0.dtd"
   xmlns="http://www.w3.org/2000/svg"
   xmlns:svg="http://www.w3.org/2000/svg"><sodipodi:namedview
     id="namedview7"
     pagecolor="#ffffff"
     bordercolor="#000000"
     borderopacity="0.25"
     inkscape:showpageshadow="2"
     inkscape:pageopacity="0.0"
     inkscape:pagecheckerboard="0"
     inkscape:deskcolor="#d1d1d1"
     inkscape:document-units="px"
     showgrid="false"
     inkscape:zoom="0.67780272"
     inkscape:cx="1368.3923"
     inkscape:cy="232.3685"
     inkscape:window-width="1366"
     inkscape:window-height="704"
     inkscape:window-x="0"
     inkscape:window-y="27"
     inkscape:window-maximized="1"
     inkscape:current-layer="layer1"
     showguides="true" /><defs
     id="defs2" /><g
     inkscape:label="Layer 1"
     inkscape:groupmode="layer"
     id="layer1"
     transform="translate(-404.31402,-17.427971)"><g
       id="g8294"
       transform="translate(-1.6321984,-6.5544505)"
       inkscape:export-filename="../cdc09d0a/logo.svg"
       inkscape:export-xdpi="96"
       inkscape:export-ydpi="96"><path
         d="m 423.65122,44.92564 h -7.42885 v 13.240826 h -2.51269 V 26.35353 h 8.71796 q 4.34806,0 6.72967,2.490847 2.40343,2.468999 2.40343,6.882607 0,3.080785 -1.48577,5.418687 -1.48575,2.31605 -3.99845,3.21188 l 6.62042,13.52487 v 0.284028 h -2.66566 z m -7.42885,-2.316053 h 6.64226 q 2.81859,0 4.501,-1.922756 1.68242,-1.94461 1.68242,-4.959847 0,-3.342981 -1.74796,-5.178342 -1.74796,-1.835362 -4.8943,-1.835362 h -6.18342 z"
         id="path7080"
         style="font-weight:300;font-size:25.4px;font-family:'Roboto Condensed';-inkscape-font-specification:'Roboto Condensed,  Light';fill:#ffffff;stroke-width:1.32292;stroke-linejoin:round" /><path
         d="m 446.18491,58.603457 q -4.17325,0 -6.53301,-2.731195 -2.35975,-2.731195 -2.40344,-7.778436 v -2.884142 q 0,-5.20019 2.27234,-8.149878 2.27235,-2.971538 6.24898,-2.971538 3.84551,0 5.85568,2.512697 2.03201,2.512698 2.0757,7.69104 v 2.27235 H 439.6519 v 1.332827 q 0,4.06401 1.72612,6.270819 1.74797,2.206798 4.91615,2.206798 3.49592,0 5.65902,-2.556394 l 1.26728,1.616866 q -2.31605,3.168186 -7.03556,3.168186 z m -0.41516,-22.242835 q -2.8623,0 -4.4136,2.032005 -1.52948,2.010159 -1.68242,5.899378 h 11.6021 V 43.65837 q -0.17473,-7.297748 -5.50605,-7.297748 z"
         id="path7082"
         style="font-weight:300;font-size:25.4px;font-family:'Roboto Condensed';-inkscape-font-specification:'Roboto Condensed,  Light';fill:#ffffff;stroke-width:1.32292;stroke-linejoin:round" /><path
         d="m 466.81771,56.35295 q 2.53456,0 3.88922,-1.420216 1.35468,-1.420222 1.46393,-4.085865 h 2.3379 q -0.17476,3.62702 -2.31606,5.702731 -2.14125,2.053857 -5.37499,2.053857 -4.21696,0 -6.38006,-2.687498 -2.14125,-2.70934 -2.18494,-8.018777 V 45.01304 q 0,-5.418688 2.14123,-8.17173 2.16312,-2.753042 6.40192,-2.753042 3.51778,0 5.5498,2.228654 2.03199,2.206804 2.1631,6.183422 h -2.3379 q -0.10923,-2.92784 -1.48577,-4.522857 -1.37653,-1.616865 -3.88923,-1.616865 -3.14633,0 -4.6321,2.119404 -1.46391,2.119405 -1.46391,6.511166 v 2.687491 q 0,4.544705 1.48577,6.620411 1.48577,2.053856 4.63209,2.053856 z"
         id="path7084"
         style="font-weight:300;font-size:25.4px;font-family:'Roboto Condensed';-inkscape-font-specification:'Roboto Condensed,  Light';fill:#ffffff;stroke-width:1.32292;stroke-linejoin:round" /><path
         d="m 479.06028,45.144138 q 0,-5.112795 2.31606,-8.084332 2.31605,-2.971538 6.31452,-2.971538 4.02032,0 6.3145,2.927839 2.31606,2.927839 2.33791,8.062479 v 2.512697 q 0,5.200194 -2.33791,8.106184 -2.31605,2.90599 -6.27081,2.90599 -3.95476,0 -6.27081,-2.840444 -2.31606,-2.840438 -2.40346,-7.822134 z m 2.44715,2.447145 q 0,4.085865 1.63872,6.423766 1.66057,2.337901 4.5884,2.337901 2.99339,0 4.56656,-2.2505 1.59501,-2.250501 1.61686,-6.445615 v -2.512697 q 0,-4.085866 -1.66055,-6.423766 -1.66057,-2.35975 -4.56656,-2.35975 -2.8186,0 -4.47915,2.294201 -1.66057,2.294202 -1.70428,6.31452 z"
         id="path7086"
         style="font-weight:300;font-size:25.4px;font-family:'Roboto Condensed';-inkscape-font-specification:'Roboto Condensed,  Light';fill:#ffffff;stroke-width:1.32292;stroke-linejoin:round" /><path
         d="m 500.89483,45.253382 q 0,-5.593481 1.92276,-8.368372 1.92276,-2.796742 5.76829,-2.796742 4.08587,0 6.07417,3.736273 l 0.13108,-3.299281 h 2.2505 v 24.318538 q -0.022,4.282515 -2.05386,6.511167 -2.01015,2.228652 -5.87752,2.228652 -1.9446,0 -3.93292,-0.961382 -1.96646,-0.939528 -2.99339,-2.316047 l 1.13617,-1.747964 q 2.42531,2.774892 5.61533,2.774892 2.9497,0 4.28252,-1.573168 1.35467,-1.573169 1.37652,-4.785052 v -3.758118 q -1.9883,3.386679 -6.03046,3.386679 -3.69258,0 -5.65904,-2.774892 -1.94461,-2.774893 -2.01016,-8.018784 z m 2.44714,2.206809 q 0,4.544704 1.37653,6.685956 1.37652,2.141257 4.32622,2.141257 3.93291,0 5.54977,-3.736274 V 40.468335 q -1.6387,-4.042165 -5.50608,-4.042165 -2.97154,0 -4.34806,2.119405 -1.37652,2.119405 -1.39838,6.55486 z"
         id="path7088"
         style="font-weight:300;font-size:25.4px;font-family:'Roboto Condensed';-inkscape-font-specification:'Roboto Condensed,  Light';fill:#ffffff;stroke-width:1.32292;stroke-linejoin:round" /><path
         d="m 523.9092,34.52526 0.0655,3.758121 q 1.04878,-1.922759 2.66564,-3.058936 1.63871,-1.136177 3.71443,-1.136177 6.18341,0 6.33637,8.237275 v 15.840923 h -2.40346 V 42.587739 q -0.0218,-3.168182 -1.11433,-4.675801 -1.09248,-1.507619 -3.43038,-1.507619 -1.9009,0 -3.43038,1.442071 -1.50762,1.420219 -2.29419,3.911067 v 16.409009 h -2.4253 V 34.52526 Z"
         id="path7090"
         style="font-weight:300;font-size:25.4px;font-family:'Roboto Condensed';-inkscape-font-specification:'Roboto Condensed,  Light';fill:#ffffff;stroke-width:1.32292;stroke-linejoin:round" /><path
         d="m 408.74298,58.166466 h -2.44714 V 34.52526 h 2.44714 z M 405.94624,27.7082 q 0,-0.742882 0.41516,-1.267271 0.41511,-0.524391 1.17986,-0.524391 0.76475,0 1.17988,0.524391 0.43698,0.524386 0.43698,1.267271 0,0.742886 -0.43698,1.267274 -0.4151,0.502537 -1.17988,0.502537 -0.76473,0 -1.17986,-0.502537 -0.41516,-0.524391 -0.41516,-1.267274 z"
         id="path7092"
         style="font-weight:300;font-size:25.4px;font-family:'Roboto Condensed';-inkscape-font-specification:'Roboto Condensed,  Light';fill:#ffffff;stroke-width:1.32292;stroke-linejoin:round" /><path
         d="m 564.83315,55.915959 h 12.76012 v 2.250507 h -15.64426 v -1.966462 l 11.9517,-19.380543 H 562.27674 V 34.52526 h 14.57364 v 1.988308 z"
         id="path7094"
         style="font-weight:300;font-size:25.4px;font-family:'Roboto Condensed';-inkscape-font-specification:'Roboto Condensed,  Light';fill:#ffffff;stroke-width:1.32292;stroke-linejoin:round" /><path
         d="m 591.08128,58.603457 q -4.17325,0 -6.53301,-2.731195 -2.35975,-2.731195 -2.40346,-7.778436 v -2.884142 q 0,-5.20019 2.27236,-8.149878 2.27235,-2.971538 6.24898,-2.971538 3.84551,0 5.85568,2.512697 2.03199,2.512698 2.0757,7.69104 v 2.27235 h -14.04926 v 1.332827 q 0,4.06401 1.72612,6.270819 1.74797,2.206798 4.91614,2.206798 3.49593,0 5.65903,-2.556394 l 1.26728,1.616866 q -2.31605,3.168186 -7.03556,3.168186 z m -0.41511,-22.242835 q -2.8623,0 -4.4136,2.032005 -1.52948,2.010159 -1.68244,5.899378 h 11.6021 V 43.65837 q -0.17476,-7.297748 -5.50608,-7.297748 z"
         id="path7096"
         style="font-weight:300;font-size:25.4px;font-family:'Roboto Condensed';-inkscape-font-specification:'Roboto Condensed,  Light';fill:#ffffff;stroke-width:1.32292;stroke-linejoin:round" /><g
         id="rect6082"><path
           style="color:#000000;fill:#003b78;stroke-width:0.529167;-inkscape-stroke:none"
           d="m 543.98911,41.961781 h 10.66201 c 0.0958,0 0.17289,0.07711 0.17289,0.172887 v 1.88767 c 0,0.09578 -0.0771,0.172887 -0.17289,0.172887 h -10.66201 c -0.0958,0 -0.17289,-0.07711 -0.17289,-0.172887 v -1.88767 c 0,-0.09578 0.0771,-0.172887 0.17289,-0.172887 z"
           id="path8242" /><path
           style="color:#000000;fill:#003b78;-inkscape-stroke:none"
           d="m 543.98828,41.697266 c -0.23778,0 -0.4375,0.199718 -0.4375,0.4375 v 1.886718 c 0,0.237782 0.19972,0.4375 0.4375,0.4375 h 10.66211 c 0.23778,0 0.4375,-0.199718 0.4375,-0.4375 v -1.886718 c 0,-0.237782 -0.19972,-0.4375 -0.4375,-0.4375 z m 0.0918,0.529296 h 10.47851 v 1.703125 h -10.47851 z"
           id="path8244" /></g><g
         id="path6963"><path
           style="color:#000000;fill:#ffffff;stroke-width:0.529167;-inkscape-stroke:none"
           d="m 545.54474,41.958818 c -0.329,-3.978399 -2.15918,-5.417549 -3.97644,-6.70821 2.57758,-3.604383 5.15469,-7.209027 7.73138,-10.814147 2.61135,3.620041 7.77236,10.823523 7.77236,10.823523 -1.97487,1.409727 -3.86327,2.937032 -3.98323,6.704814 z"
           id="path8248" /><path
           style="color:#000000;fill:#003b78;-inkscape-stroke:none"
           d="m 549.29883,23.982422 -0.21485,0.300781 c -2.57667,3.605096 -5.1529,7.210091 -7.73046,10.814453 l -0.1543,0.214844 0.2168,0.154297 c 1.80993,1.285455 3.54244,2.610372 3.86523,6.513672 l 0.0195,0.242187 h 0.24414 l 7.80078,0.0078 0.008,-0.257813 c 0.11722,-3.68178 1.90681,-5.094485 3.87304,-6.498047 l 0.21485,-0.152343 -0.1543,-0.216797 c 0,0 -5.16143,-7.203264 -7.77344,-10.824219 z m 0.002,0.908203 c 2.62228,3.637698 7.25324,10.100566 7.42188,10.335937 -1.86021,1.34678 -3.65205,2.961375 -3.85547,6.47461 l -7.10742,-0.0078 c -0.38389,-3.697653 -2.12539,-5.238597 -3.84375,-6.476562 2.46136,-3.441896 4.92421,-6.883604 7.38476,-10.326172 z"
           id="path8250" /></g><g
         id="path7066"><path
           style="color:#000000;fill:#003b78;stroke-width:0.529167;-inkscape-stroke:none"
           d="m 550.86528,35.301468 a 1.5612673,1.5612673 0 0 1 -1.56126,1.561267 1.5612673,1.5612673 0 0 1 -1.56127,-1.561267 1.5612673,1.5612673 0 0 1 1.56127,-1.561267 1.5612673,1.5612673 0 0 1 1.56126,1.561267 z"
           id="path8254" /><path
           style="color:#000000;fill:#003b78;-inkscape-stroke:none"
           d="m 549.30469,33.476562 c -1.00526,0 -1.82617,0.818965 -1.82617,1.824219 0,1.005255 0.82091,1.826172 1.82617,1.826172 1.00525,0 1.82422,-0.820917 1.82422,-1.826172 0,-1.005254 -0.81897,-1.824219 -1.82422,-1.824219 z m 0,0.527344 c 0.71927,0 1.29687,0.577603 1.29687,1.296875 0,0.719272 -0.5776,1.296875 -1.29687,1.296875 -0.71927,0 -1.29688,-0.577603 -1.29688,-1.296875 0,-0.719272 0.57761,-1.296875 1.29688,-1.296875 z"
           id="path8256" /></g><g
         id="path7068"><path
           style="color:#000000;fill:#ffffff;stroke-width:0.529167;-inkscape-stroke:none"
           d="m 549.29968,24.436461 v 9.303747"
           id="path8260" /><path
           style="color:#000000;fill:#003b78;-inkscape-stroke:none"
           d="m 549.03516,24.435547 v 9.304687 h 0.52929 v -9.304687 z"
           id="path8262" /></g><g
         id="path7074"><path
           style="color:#000000;fill:#ffffff;stroke-width:0.529167;-inkscape-stroke:none"
           d="m 545.54474,44.195226 v 13.971229 h 7.54407 V 44.195226 Z"
           id="path8266" /><path
           style="color:#000000;fill:#003b78;-inkscape-stroke:none"
           d="m 545.2793,43.929687 v 0.265625 14.236329 h 8.07422 V 43.929687 Z m 0.52929,0.529297 h 7.01563 v 13.44336 h -7.01563 z"
           id="path8268" /></g></g></g></svg>
