<?xml version="1.0" encoding="UTF-8" standalone="no"?>
<!-- Uploaded to: SVG Repo, www.svgrepo.com, Generator: SVG Repo Mixer Tools -->

<svg
   width="800px"
   height="800px"
   viewBox="0 0 24 24"
   fill="none"
   version="1.1"
   id="svg150"
   sodipodi:docname="upload.svg"
   inkscape:version="1.2.2 (732a01da63, 2022-12-09, custom)"
   xmlns:inkscape="http://www.inkscape.org/namespaces/inkscape"
   xmlns:sodipodi="http://sodipodi.sourceforge.net/DTD/sodipodi-0.dtd"
   xmlns="http://www.w3.org/2000/svg"
   xmlns:svg="http://www.w3.org/2000/svg">
  <defs
     id="defs154" />
  <sodipodi:namedview
     id="namedview152"
     pagecolor="#ffffff"
     bordercolor="#000000"
     borderopacity="0.25"
     inkscape:showpageshadow="2"
     inkscape:pageopacity="0.0"
     inkscape:pagecheckerboard="0"
     inkscape:deskcolor="#d1d1d1"
     showgrid="false"
     inkscape:zoom="0.62625"
     inkscape:cx="399.2016"
     inkscape:cy="401.59681"
     inkscape:window-width="1366"
     inkscape:window-height="704"
     inkscape:window-x="0"
     inkscape:window-y="27"
     inkscape:window-maximized="1"
     inkscape:current-layer="svg150" />
  <path
     d="M7 10V9C7 6.23858 9.23858 4 12 4C14.7614 4 17 6.23858 17 9V10C19.2091 10 21 11.7909 21 14C21 15.4806 20.1956 16.8084 19 17.5M7 10C4.79086 10 3 11.7909 3 14C3 15.4806 3.8044 16.8084 5 17.5M7 10C7.43285 10 7.84965 10.0688 8.24006 10.1959M12 12V21M12 12L15 15M12 12L9 15"
     stroke="#000000"
     stroke-width="1.5"
     stroke-linecap="round"
     stroke-linejoin="round"
     id="path148"
     style="fill:none;stroke:#ffffff" />
</svg>
