<?xml version="1.0" encoding="UTF-8" standalone="no"?>
<!-- Created with Inkscape (http://www.inkscape.org/) -->

<svg
   width="61.388489"
   height="130.20177"
   viewBox="0 0 16.242371 34.449217"
   version="1.1"
   id="svg5"
   inkscape:version="1.2.2 (732a01da63, 2022-12-09, custom)"
   sodipodi:docname="website_design.svg"
   xml:space="preserve"
   xmlns:inkscape="http://www.inkscape.org/namespaces/inkscape"
   xmlns:sodipodi="http://sodipodi.sourceforge.net/DTD/sodipodi-0.dtd"
   xmlns="http://www.w3.org/2000/svg"
   xmlns:svg="http://www.w3.org/2000/svg"><sodipodi:namedview
     id="namedview7"
     pagecolor="#ffffff"
     bordercolor="#000000"
     borderopacity="0.25"
     inkscape:showpageshadow="2"
     inkscape:pageopacity="0.0"
     inkscape:pagecheckerboard="0"
     inkscape:deskcolor="#d1d1d1"
     inkscape:document-units="px"
     showgrid="false"
     inkscape:zoom="0.22634613"
     inkscape:cx="1013.9339"
     inkscape:cy="1309.9407"
     inkscape:window-width="1366"
     inkscape:window-height="704"
     inkscape:window-x="0"
     inkscape:window-y="27"
     inkscape:window-maximized="1"
     inkscape:current-layer="layer1"
     showguides="false"><sodipodi:guide
       position="-190.22714,-170.9024"
       orientation="0,-1"
       id="guide5687"
       inkscape:locked="false" /><sodipodi:guide
       position="-534.18549,-274.0899"
       orientation="1,0"
       id="guide5689"
       inkscape:locked="false" /><sodipodi:guide
       position="-145.71572,-245.57292"
       orientation="1,0"
       id="guide5691"
       inkscape:locked="false" /><sodipodi:guide
       position="-190.22715,51.877188"
       orientation="0,-1"
       id="guide5693"
       inkscape:locked="false" /><sodipodi:guide
       position="-190.22711,-399.87041"
       orientation="0,-1"
       id="guide5695"
       inkscape:locked="false" /><sodipodi:guide
       position="-489.26877,-444.75131"
       orientation="1,0"
       id="guide6284"
       inkscape:locked="false" /><sodipodi:guide
       position="-470.16735,-438.11528"
       orientation="0,-1"
       id="guide6286"
       inkscape:locked="false" /><sodipodi:guide
       position="-395.21929,-442.46822"
       orientation="0,-1"
       id="guide6288"
       inkscape:locked="false" /><sodipodi:guide
       position="-340.19422,-462.07634"
       orientation="1,0"
       id="guide6338"
       inkscape:locked="false" /></sodipodi:namedview><defs
     id="defs2" /><g
     inkscape:label="Layer 1"
     inkscape:groupmode="layer"
     id="layer1"
     transform="translate(-534.18548,-17.427971)"><g
       id="path7074"
       transform="translate(-7.0137551,-6.5544497)"><g
         id="g662"><path
           style="color:#000000;fill:#003b78;stroke-width:0.529167;-inkscape-stroke:none"
           d="m 543.98911,41.961781 h 10.66201 c 0.0958,0 0.17289,0.07711 0.17289,0.172887 v 1.88767 c 0,0.09578 -0.0771,0.172887 -0.17289,0.172887 h -10.66201 c -0.0958,0 -0.17289,-0.07711 -0.17289,-0.172887 v -1.88767 c 0,-0.09578 0.0771,-0.172887 0.17289,-0.172887 z"
           id="path8242" /><path
           style="color:#000000;fill:#003b78;-inkscape-stroke:none"
           d="m 543.98828,41.697266 c -0.23778,0 -0.4375,0.199718 -0.4375,0.4375 v 1.886718 c 0,0.237782 0.19972,0.4375 0.4375,0.4375 h 10.66211 c 0.23778,0 0.4375,-0.199718 0.4375,-0.4375 v -1.886718 c 0,-0.237782 -0.19972,-0.4375 -0.4375,-0.4375 z m 0.0918,0.529296 h 10.47851 v 1.703125 h -10.47851 z"
           id="path8244" /><path
           style="color:#000000;fill:#ffffff;stroke-width:0.529167;-inkscape-stroke:none"
           d="m 545.54474,41.958818 c -0.329,-3.978399 -2.15918,-5.417549 -3.97644,-6.70821 2.57758,-3.604383 5.15469,-7.209027 7.73138,-10.814147 2.61135,3.620041 7.77236,10.823523 7.77236,10.823523 -1.97487,1.409727 -3.86327,2.937032 -3.98323,6.704814 z"
           id="path8248" /><path
           style="color:#000000;fill:#003b78;-inkscape-stroke:none"
           d="m 549.29883,23.982422 -0.21485,0.300781 c -2.57667,3.605096 -5.1529,7.210091 -7.73046,10.814453 l -0.1543,0.214844 0.2168,0.154297 c 1.80993,1.285455 3.54244,2.610372 3.86523,6.513672 l 0.0195,0.242187 h 0.24414 l 7.80078,0.0078 0.008,-0.257813 c 0.11722,-3.68178 1.90681,-5.094485 3.87304,-6.498047 l 0.21485,-0.152343 -0.1543,-0.216797 c 0,0 -5.16143,-7.203264 -7.77344,-10.824219 z m 0.002,0.908203 c 2.62228,3.637698 7.25324,10.100566 7.42188,10.335937 -1.86021,1.34678 -3.65205,2.961375 -3.85547,6.47461 l -7.10742,-0.0078 c -0.38389,-3.697653 -2.12539,-5.238597 -3.84375,-6.476562 2.46136,-3.441896 4.92421,-6.883604 7.38476,-10.326172 z"
           id="path8250" /><path
           style="color:#000000;fill:#003b78;stroke-width:0.529167;-inkscape-stroke:none"
           d="m 550.86528,35.301468 a 1.5612673,1.5612673 0 0 1 -1.56126,1.561267 1.5612673,1.5612673 0 0 1 -1.56127,-1.561267 1.5612673,1.5612673 0 0 1 1.56127,-1.561267 1.5612673,1.5612673 0 0 1 1.56126,1.561267 z"
           id="path8254" /><path
           style="color:#000000;fill:#003b78;-inkscape-stroke:none"
           d="m 549.30469,33.476562 c -1.00526,0 -1.82617,0.818965 -1.82617,1.824219 0,1.005255 0.82091,1.826172 1.82617,1.826172 1.00525,0 1.82422,-0.820917 1.82422,-1.826172 0,-1.005254 -0.81897,-1.824219 -1.82422,-1.824219 z m 0,0.527344 c 0.71927,0 1.29687,0.577603 1.29687,1.296875 0,0.719272 -0.5776,1.296875 -1.29687,1.296875 -0.71927,0 -1.29688,-0.577603 -1.29688,-1.296875 0,-0.719272 0.57761,-1.296875 1.29688,-1.296875 z"
           id="path8256" /><g
           id="path7068"><path
             style="color:#000000;fill:#ffffff;stroke-width:0.529167;-inkscape-stroke:none"
             d="m 549.29968,24.436461 v 9.303747"
             id="path8260" /><path
             style="color:#000000;fill:#003b78;-inkscape-stroke:none"
             d="m 549.03516,24.435547 v 9.304687 h 0.52929 v -9.304687 z"
             id="path8262" /></g><path
           style="color:#000000;fill:#ffffff;stroke-width:0.529167;-inkscape-stroke:none"
           d="m 545.54474,44.195226 v 13.971229 h 7.54407 V 44.195226 Z"
           id="path8266" /><path
           style="color:#000000;fill:#003b78;-inkscape-stroke:none"
           d="m 545.2793,43.929687 v 0.265625 14.236329 h 8.07422 V 43.929687 Z m 0.52929,0.529297 h 7.01563 v 13.44336 h -7.01563 z"
           id="path8268" /></g></g></g></svg>
